<?xml version="1.0" encoding="iso-8859-1"?>
<!-- Generator: Adobe Illustrator 16.0.0, SVG Export Plug-In . SVG Version: 6.00 Build 0)  -->
<!DOCTYPE svg PUBLIC "-//W3C//DTD SVG 1.1//EN" "http://www.w3.org/Graphics/SVG/1.1/DTD/svg11.dtd">
<svg xmlns="http://www.w3.org/2000/svg" xmlns:xlink="http://www.w3.org/1999/xlink" version="1.1" id="Capa_1" x="0px" y="0px" width="512px" height="512px" viewBox="0 0 218.1 218.1" style="enable-background:new 0 0 218.1 218.1;" xml:space="preserve">
<g>
	<g>
		<path d="M102.649,47.18c1.69-0.786,2.423-2.793,1.637-4.483c-1.693-3.642-2.552-7.649-2.552-11.91    c0-10.474,4.458-18.257,7.315-22.17c2.857,3.913,7.315,11.696,7.315,22.17c0,4.26-0.858,8.267-2.552,11.91    c-0.786,1.69-0.053,3.698,1.637,4.483c1.691,0.786,3.698,0.052,4.483-1.637c2.111-4.54,3.181-9.505,3.181-14.756    c0-18.291-11.227-29.384-11.705-29.847c-0.651-0.631-1.503-0.942-2.36-0.94c-0.857-0.002-1.709,0.309-2.36,0.94    c-0.478,0.463-11.705,11.556-11.705,29.847c0,5.251,1.07,10.215,3.181,14.756C98.951,47.232,100.958,47.965,102.649,47.18z" fill="#FFFFFF"/>
		<path d="M117.626,118.59c-1.83,0.352-3.03,2.119-2.681,3.95c0.31,1.616,1.725,2.741,3.312,2.741c0.211,0,0.424-0.021,0.639-0.062    c7.688-1.472,14.511-5.101,19.73-10.494c12.684-13.104,9.006-30.987,8.844-31.742c-0.335-1.554-1.71-2.664-3.299-2.664h-0.003    c-0.665,0-16.446,0.164-29.165,13.305c-1.052,1.085-2.012,2.189-2.886,3.316V74.81c0.002-0.013,0.006-0.025,0.008-0.038    c0.481-3.868,1.808-9.718,7.728-15.834c7.653-7.907,16.779-10.258,21.375-10.956c0.341,4.923-0.041,15.011-7.452,22.667    c-4.308,4.452-9.742,7.332-16.149,8.559c-1.83,0.351-3.03,2.119-2.681,3.95c0.31,1.616,1.725,2.741,3.312,2.741    c0.211,0,0.424-0.02,0.639-0.061c7.688-1.472,14.511-5.101,19.73-10.494c12.684-13.104,9.006-30.987,8.844-31.742    c-0.335-1.554-1.71-2.664-3.299-2.664h-0.003c-0.665,0-16.446,0.164-29.165,13.305c-2.474,2.555-4.438,5.211-5.953,8.042    c-1.515-2.83-3.479-5.487-5.952-8.042c-12.719-13.142-28.5-13.305-29.165-13.305h-0.004c-1.59,0-2.964,1.109-3.299,2.664    c-0.163,0.755-3.84,18.637,8.843,31.742c5.219,5.393,12.042,9.022,19.73,10.494c0.215,0.041,0.428,0.061,0.639,0.061    c1.586,0,3.001-1.125,3.311-2.741c0.351-1.831-0.849-3.599-2.68-3.95c-6.408-1.227-11.841-4.107-16.15-8.559    c-7.41-7.656-7.793-17.744-7.452-22.667c4.596,0.698,13.722,3.049,21.375,10.956c5.921,6.116,7.246,11.966,7.728,15.834    c0.002,0.013,0.005,0.025,0.007,0.038v22.131c-0.874-1.127-1.834-2.23-2.885-3.316C90.377,80.483,74.596,80.32,73.931,80.32    h-0.002c-1.59,0-2.964,1.109-3.299,2.664c-0.163,0.755-3.84,18.637,8.843,31.742c5.219,5.394,12.042,9.022,19.73,10.494    c0.215,0.041,0.428,0.062,0.639,0.062c1.586,0,3.001-1.125,3.311-2.741c0.351-1.831-0.849-3.599-2.68-3.95    c-6.408-1.227-11.841-4.107-16.15-8.559c-7.41-7.656-7.793-17.746-7.452-22.667c4.596,0.698,13.722,3.049,21.375,10.956    c5.921,6.116,7.246,11.965,7.728,15.834c0.002,0.013,0.005,0.024,0.007,0.037v23.059c-0.874-1.127-1.834-2.23-2.885-3.316    c-12.719-13.142-28.5-13.305-29.165-13.305h-0.002c-1.59,0-2.964,1.109-3.299,2.664c-0.163,0.755-3.84,18.637,8.843,31.74    c5.219,5.394,12.042,9.022,19.73,10.494c0.215,0.041,0.428,0.062,0.639,0.062c1.586,0,3.001-1.125,3.311-2.741    c0.351-1.831-0.849-3.599-2.68-3.949c-6.408-1.228-11.841-4.107-16.15-8.56c-7.41-7.656-7.793-17.744-7.452-22.667    c4.596,0.697,13.722,3.049,21.375,10.956c5.921,6.116,7.246,11.966,7.728,15.834c0.002,0.013,0.005,0.024,0.007,0.038v60.24    c0,1.761,1.347,3.205,3.067,3.359c1.719-0.156,3.067-1.599,3.067-3.359V154.5c0.002-0.014,0.005-0.025,0.007-0.038    c0.482-3.868,1.809-9.718,7.729-15.834c7.653-7.907,16.779-10.259,21.375-10.956c0.341,4.923-0.041,15.011-7.452,22.667    c-4.308,4.452-9.742,7.332-16.149,8.56c-1.83,0.351-3.03,2.118-2.681,3.949c0.31,1.616,1.725,2.741,3.312,2.741    c0.211,0,0.424-0.021,0.639-0.062c7.688-1.472,14.511-5.101,19.73-10.494c12.684-13.104,9.006-30.986,8.844-31.74    c-0.335-1.555-1.71-2.664-3.299-2.664h-0.003c-0.665,0-16.446,0.164-29.165,13.305c-1.052,1.086-2.012,2.189-2.886,3.316v-23.059    c0.002-0.013,0.005-0.024,0.008-0.037c0.481-3.867,1.808-9.718,7.728-15.833c7.653-7.907,16.779-10.258,21.375-10.956    c0.341,4.923-0.041,15.011-7.452,22.667C129.467,114.482,124.032,117.363,117.626,118.59z" fill="#FFFFFF"/>
	</g>
</g>
<g>
</g>
<g>
</g>
<g>
</g>
<g>
</g>
<g>
</g>
<g>
</g>
<g>
</g>
<g>
</g>
<g>
</g>
<g>
</g>
<g>
</g>
<g>
</g>
<g>
</g>
<g>
</g>
<g>
</g>
</svg>
