<?xml version="1.0" encoding="utf-8"?>
<!-- Generator: Adobe Illustrator 19.2.1, SVG Export Plug-In . SVG Version: 6.00 Build 0)  -->
<svg version="1.1" id="Capa_1" xmlns="http://www.w3.org/2000/svg" xmlns:xlink="http://www.w3.org/1999/xlink" x="0px" y="0px"
	 viewBox="0 0 512 512" style="enable-background:new 0 0 512 512;" xml:space="preserve">
<style type="text/css">
	.st0{fill:#FFFFFF;}
</style>
<g>
	<g>
		<path class="st0" d="M182.3,0C84,0,4,80,4,178.3c0,98.3,80,178.3,178.3,178.3c41.7,0,80-14.4,110.4-38.4L482,507.5
			c3,3,6.9,4.5,10.8,4.5c3.9,0,7.8-1.5,10.8-4.5c6-5.9,6-15.6,0-21.6L315,297.4c28.4-31.6,45.7-73.3,45.7-119
			C360.6,80,280.6,0,182.3,0z M34.5,178.3c0-81.5,66.3-147.8,147.8-147.8c81.5,0,147.8,66.3,147.8,147.8
			c0,41.2-16.9,78.4-44.2,105.2c-1.3,0.7-2.6,1.5-3.7,2.7c-0.8,0.8-1.5,1.7-2.1,2.6c-26.1,23.1-60.3,37.3-97.9,37.3
			C100.8,326.1,34.5,259.8,34.5,178.3z"/>
	</g>
</g>
<g>
	<g>
		<path class="st0" d="M220.7,321.7c-0.1,0-0.1,0-0.2,0C220.5,321.7,220.6,321.7,220.7,321.7z"/>
		<path class="st0" d="M221.1,321.7c0.6,0,1.6,0,2.7,0l6.2,0C227.1,321.4,224.1,321.4,221.1,321.7z"/>
		<path class="st0" d="M503.5,486L315,297.4c28.5-31.7,45.8-73.7,45.7-119.6C360.3,79.5,279.7-0.4,181.5,0
			C81.6,0.5,0.9,83.4,4.1,184C7,277.7,82.9,353.6,176.7,356.6c13.4,0.4,26.4-0.7,39-3.1c4.1-0.8,29.6-6.7,25.1-19.6
			c-3.4-9.8-12-11.9-16.9-12.2l-3.4,0c-2.2,0.2-4.4,0.5-6.6,1c-10.2,2.2-20.7,3.4-31.5,3.4c-81.9,0-148.5-67-147.8-149
			c0.7-80.4,66.3-146,146.7-146.6c82-0.6,148.9,65.9,148.9,147.8c0,41.2-16.9,78.4-44.2,105.2c-1.3,0.7-2.6,1.5-3.7,2.7
			c-0.8,0.8-1.5,1.7-2.1,2.6c0,0-0.1,0.1-0.1,0.1c-4.8,4.2-5.1,11.6-0.6,16.1l13.2,13.2c0,0,0,0,0,0l46.9,46.9l0,0L482,507.5
			c3,3,6.9,4.5,10.8,4.5c3.9,0,7.8-1.5,10.8-4.5C509.5,501.6,509.5,491.9,503.5,486z"/>
	</g>
	<path class="st0" d="M257.2,156.7h-53.7V103c0-10.2-8.3-18.5-18.5-18.5h0c-10.2,0-18.5,8.3-18.5,18.5v53.7h-53.7
		c-10.2,0-18.5,8.3-18.5,18.5s8.3,18.5,18.5,18.5h53.7v53.7c0,10.2,8.3,18.5,18.5,18.5h0c10.2,0,18.5-8.3,18.5-18.5v-53.7h53.7
		c10.2,0,18.5-8.3,18.5-18.5S267.4,156.7,257.2,156.7z"/>
</g>
</svg>
