<?xml version="1.0" encoding="iso-8859-1"?>
<svg xmlns="http://www.w3.org/2000/svg" xmlns:xlink="http://www.w3.org/1999/xlink" version="1.1" viewBox="0 0 470 470" enable-background="new 0 0 470 470" width="512px" height="512px">
  <g>
    <path d="m205.002,95.547c1.778,0 3.563-0.628 4.993-1.905 3.09-2.759 3.358-7.5 0.6-10.59-5.353-5.995-8.3-13.71-8.3-21.726 0-17.564 13.299-35.9 32.706-45.552 19.407,9.651 32.706,27.987 32.706,45.552 0,8.016-2.948,15.731-8.3,21.726-2.759,3.089-2.491,7.831 0.599,10.589 3.088,2.758 7.83,2.491 10.589-0.599 7.81-8.747 12.111-20.01 12.111-31.716 0-24.235-18.382-49.196-44.702-60.699-1.915-0.837-4.092-0.836-6.007,0-26.32,11.503-44.702,36.463-44.702,60.698 0,11.706 4.301,22.969 12.111,31.716 1.481,1.661 3.534,2.507 5.596,2.506z" fill="#FFFFFF"/>
    <path d="m124.722,323.873h30c4.142,0 7.5-3.358 7.5-7.5s-3.358-7.5-7.5-7.5h-30c-4.142,0-7.5,3.358-7.5,7.5s3.358,7.5 7.5,7.5z" fill="#FFFFFF"/>
    <path d="m462.5,420h-58.831c3.79-5.528 6.014-12.211 6.014-19.405 0-16.395-11.529-30.148-26.905-33.581v-133.109c0-18.971-15.434-34.405-34.404-34.405h-85.874v-68.191c0-9.649-7.851-17.5-17.5-17.5h-2.5v-22.5c0-4.142-3.358-7.5-7.5-7.5s-7.5,3.358-7.5,7.5v22.5h-2.5c-9.649,0-17.5,7.851-17.5,17.5v68.191h-112.778c-18.971,0-34.405,15.434-34.405,34.404 0,16.042 11.038,29.553 25.917,33.343-0.484,1.307-1.124,2.486-1.876,3.87-2.087,3.84-4.686,8.62-4.686,17.472s2.598,13.631 4.686,17.472c1.725,3.173 2.864,5.27 2.864,10.309s-1.14,7.135-2.864,10.309c-2.087,3.841-4.686,8.621-4.686,17.472 0,8.852 2.598,13.632 4.686,17.472 1.725,3.174 2.864,5.27 2.864,10.309 0,5.04-1.14,7.137-2.865,10.311-2.087,3.841-4.685,8.621-4.685,17.473s2.598,13.633 4.685,17.474c0.545,1.002 1.03,1.897 1.441,2.811h-78.298c-4.142,0-7.5,3.358-7.5,7.5s3.358,7.5 7.5,7.5h4.343l4.325,15.137c3.182,11.137 14.748,19.862 26.332,19.862h385c11.584,0 23.15-8.725 26.332-19.862l4.325-15.138h4.343c4.142,0 7.5-3.358 7.5-7.5s-3.358-7.5-7.5-7.5zm-240-288.691c0-1.355 1.145-2.5 2.5-2.5h20c1.355,0 2.5,1.145 2.5,2.5v68.191h-25v-68.191zm-147.183,102.595c-1.42109e-14-10.7 8.705-19.404 19.405-19.404h253.651c10.7,0 19.404,8.705 19.404,19.405v139.786c0,4.142 3.358,7.5 7.5,7.5 10.699,0 19.404,8.705 19.405,19.404 0,10.7-8.705,19.405-19.405,19.405h-24.5v-159.191c0-4.142-3.358-7.5-7.5-7.5h-248.555c-10.7-2.84217e-14-19.405-8.705-19.405-19.405zm22.22,176.123c-1.725-3.174-2.865-5.271-2.865-10.312 0-5.04 1.14-7.137 2.865-10.311 2.087-3.841 4.685-8.621 4.685-17.473 0-8.852-2.598-13.631-4.685-17.472-1.725-3.174-2.865-5.27-2.865-10.309s1.14-7.135 2.864-10.309c2.087-3.841 4.686-8.62 4.686-17.472 0-8.852-2.598-13.631-4.686-17.472-1.725-3.173-2.864-5.27-2.864-10.309s1.14-7.135 2.864-10.309c1.403-2.581 3.033-5.592 3.953-9.971h234.288v40.563h-151.055c-4.142,0-7.5,3.358-7.5,7.5s3.358,7.5 7.5,7.5h151.056v40.564h-211.056c-4.142,0-7.5,3.358-7.5,7.5s3.358,7.5 7.5,7.5h211.056v40.565h-234.288c-0.92-4.38-2.55-7.392-3.953-9.973zm341.872,35.99c-1.343,4.701-7.02,8.983-11.909,8.983h-385c-4.89,0-10.566-4.282-11.909-8.983l-3.148-11.017h415.114l-3.148,11.017z" fill="#FFFFFF"/>
  </g>
</svg>
