<?xml version="1.0" encoding="utf-8"?>
<!-- Generator: Adobe Illustrator 19.2.1, SVG Export Plug-In . SVG Version: 6.00 Build 0)  -->
<svg version="1.1" id="Capa_1" xmlns="http://www.w3.org/2000/svg" xmlns:xlink="http://www.w3.org/1999/xlink" x="0px" y="0px"
	 viewBox="0 0 512 512" style="enable-background:new 0 0 512 512;" xml:space="preserve">
<style type="text/css">
	.st0{fill:#C2A025;}
</style>
<g>
	<path class="st0" d="M404,54.4c-16.6-2.2-33.2-0.9-49.5,3.8c-23.3-30.8-59.7-49-98.5-49s-75.2,18.2-98.5,49
		c-16.3-4.7-32.9-6-49.5-3.8C46.9,62.3,0.5,114.5,0,175.9c-0.5,57.4,38,107.2,93.6,121c13.2,3.3,23,14.6,24.2,28.1l7.4,77.7h0
		l4.2,44.4c1.8,18.9,25.8,31.9,35.9,36.6c1.4,0.7,2.6,1.2,3.4,1.5c27.7,11.7,57.5,17.5,87.3,17.5c29.8,0,59.5-5.8,87.2-17.5
		c6.2-2.6,37.2-16.5,39.3-38.1l4.2-44.4h0l7.4-77.7c1.3-13.6,11-24.9,24.2-28.1c55.6-13.9,94.2-63.6,93.7-121
		C511.5,114.5,465.1,62.3,404,54.4z M336.4,469c-51.1,21.5-109.7,21.5-160.9,0c-11-4.6-27.7-15.2-28.5-23.5L146,434
		c34.9,16.9,71.8,25.4,110,25.4s75.1-8.5,110-25.4l-1.1,11.5C364.1,453.7,347.5,464.4,336.4,469z M414.1,279.8
		c-20.5,5.1-35.5,22.6-37.6,43.6l-8.5,89.7c-35.3,19-73,28.7-112,28.7s-76.6-9.7-112-28.7l-8.5-89.7c-2-21-17.1-38.5-37.6-43.6
		C50.2,267.9,17.2,225.2,17.7,176c0.5-52.6,40.3-97.4,92.6-104.1c4.4-0.6,8.9-0.9,13.4-0.9c11.6,0,23.1,2,34.5,5.9l6.4,2.2l3.8-5.6
		C188,44.3,220.8,26.9,256,26.9s68,17.4,87.8,46.6l3.8,5.6l6.4-2.2c15.7-5.4,31.7-7.1,47.8-5c52.3,6.8,92.1,51.5,92.6,104.1
		C494.8,225.3,461.8,267.9,414.1,279.8z"/>
	<path class="st0" d="M166.6,309.5c-4.8,0.6-8.3,5-7.7,9.9l8.8,70.6c0.6,4.5,4.4,7.7,8.7,7.7c0.4,0,0.7,0,1.1-0.1
		c4.8-0.6,8.3-5,7.7-9.9l-8.8-70.6C175.9,312.3,171.4,308.9,166.6,309.5z"/>
	<path class="st0" d="M229.5,327c-4.9,0-8.8,3.9-8.8,8.8v70.6c0,4.9,4,8.8,8.8,8.8s8.8-3.9,8.8-8.8v-70.6
		C238.3,331,234.4,327,229.5,327z"/>
	<path class="st0" d="M345.4,309.5c-4.8-0.6-9.3,2.8-9.9,7.7l-8.8,70.6c-0.6,4.8,2.8,9.3,7.7,9.9c0.4,0,0.7,0.1,1.1,0.1
		c4.4,0,8.2-3.3,8.7-7.7l8.8-70.6C353.6,314.5,350.2,310.1,345.4,309.5z"/>
	<path class="st0" d="M282.5,327c-4.9,0-8.8,3.9-8.8,8.8v70.6c0,4.9,4,8.8,8.8,8.8c4.9,0,8.8-3.9,8.8-8.8v-70.6
		C291.3,331,287.4,327,282.5,327z"/>
	<path class="st0" d="M141.3,97.5c-73.7-0.6-88,59.3-88.2,59.9c-1.1,4.8,2,9.5,6.7,10.5c0.6,0.1,1.3,0.2,1.9,0.2
		c4.1,0,7.7-2.8,8.6-6.9c0.1-0.5,10.7-47,70.7-46c4.7-0.3,8.9-3.9,8.9-8.7C150.1,101.6,146.2,97.6,141.3,97.5z"/>
	<path class="st0" d="M206.5,64c-3.9,3-4.6,8.5-1.6,12.4c3,3.9,8.5,4.6,12.4,1.6c0.4-0.3,37.3-28.1,77.8,0.2c1.5,1.1,3.3,1.6,5,1.6
		c2.8,0,5.5-1.3,7.2-3.8c2.8-4,1.8-9.5-2.2-12.3C264.3,35.3,222.7,51.5,206.5,64z"/>
</g>
</svg>
